<svg width="197" height="43" viewBox="0 0 197 43" fill="none" xmlns="http://www.w3.org/2000/svg">
<path d="M5 14C5 11.2386 7.23858 9 10 9H99V36H10C7.23858 36 5 33.7614 5 31V14Z" fill="#555555"/>
<path d="M99.5 9.5H188C190.485 9.5 192.5 11.5147 192.5 14V31C192.5 33.4853 190.485 35.5 188 35.5H99.5V9.5Z" fill="white" stroke="#555555"/>
<g clip-path="url(#clip0_1468_1944)">
<path d="M22.75 29.1711C24.268 29.1711 25.5 28.1129 25.5 26.8092V24.4473H22.75C21.232 24.4473 20 25.5054 20 26.8092C20 28.1129 21.232 29.1711 22.75 29.1711Z" fill="#0ACF83"/>
<path d="M20 22.0865C20 20.7827 21.232 19.7246 22.75 19.7246H25.5V24.4484H22.75C21.232 24.4484 20 23.3903 20 22.0865Z" fill="#A259FF"/>
<path d="M20 17.3619C20 16.0581 21.232 15 22.75 15H25.5V19.7238H22.75C21.232 19.7238 20 18.6657 20 17.3619Z" fill="#F24E1E"/>
<path d="M25.5 15H28.25C29.768 15 31 16.0581 31 17.3619C31 18.6657 29.768 19.7238 28.25 19.7238H25.5V15Z" fill="#FF7262"/>
<path d="M31 22.0865C31 23.3903 29.768 24.4484 28.25 24.4484C26.732 24.4484 25.5 23.3903 25.5 22.0865C25.5 20.7827 26.732 19.7246 28.25 19.7246C29.768 19.7246 31 20.7827 31 22.0865Z" fill="#1ABCFE"/>
</g>
<path d="M37.7585 27V18.2727H43.5369V19.794H39.6037V21.8736H43.1534V23.3949H39.6037V27H37.7585ZM44.744 27V20.4545H46.5593V27H44.744ZM45.6559 19.6108C45.386 19.6108 45.1545 19.5213 44.9613 19.3423C44.771 19.1605 44.6758 18.9432 44.6758 18.6903C44.6758 18.4403 44.771 18.2259 44.9613 18.0469C45.1545 17.8651 45.386 17.7741 45.6559 17.7741C45.9258 17.7741 46.1559 17.8651 46.3462 18.0469C46.5394 18.2259 46.636 18.4403 46.636 18.6903C46.636 18.9432 46.5394 19.1605 46.3462 19.3423C46.1559 19.5213 45.9258 19.6108 45.6559 19.6108ZM50.9624 29.5909C50.3743 29.5909 49.87 29.5099 49.4496 29.348C49.032 29.1889 48.6996 28.9716 48.4524 28.696C48.2053 28.4205 48.0447 28.1108 47.9709 27.767L49.6499 27.5412C49.701 27.6719 49.782 27.794 49.8928 27.9077C50.0036 28.0213 50.1499 28.1122 50.3317 28.1804C50.5163 28.2514 50.7408 28.2869 51.005 28.2869C51.3999 28.2869 51.7251 28.1903 51.9808 27.9972C52.2393 27.8068 52.3686 27.4872 52.3686 27.0384V25.8409H52.2919C52.2124 26.0227 52.093 26.1946 51.9339 26.3565C51.7749 26.5185 51.5703 26.6506 51.3203 26.7528C51.0703 26.8551 50.772 26.9062 50.4254 26.9062C49.9339 26.9062 49.4865 26.7926 49.0831 26.5653C48.6825 26.3352 48.3629 25.9844 48.1243 25.5128C47.8885 25.0384 47.7706 24.4389 47.7706 23.7145C47.7706 22.973 47.8913 22.3537 48.1328 21.8565C48.3743 21.3594 48.6953 20.9872 49.0959 20.7401C49.4993 20.4929 49.9411 20.3693 50.4212 20.3693C50.7876 20.3693 51.0945 20.4318 51.3416 20.5568C51.5888 20.679 51.7876 20.8324 51.9382 21.017C52.0916 21.1989 52.2095 21.3778 52.2919 21.554H52.3601V20.4545H54.1626V27.0639C54.1626 27.6207 54.0263 28.0866 53.7536 28.4616C53.4808 28.8366 53.103 29.1179 52.62 29.3054C52.1399 29.4957 51.5874 29.5909 50.9624 29.5909ZM51.0007 25.5426C51.2933 25.5426 51.5405 25.4702 51.7422 25.3253C51.9467 25.1776 52.103 24.9673 52.2109 24.6946C52.3217 24.419 52.3771 24.0895 52.3771 23.706C52.3771 23.3224 52.3232 22.9901 52.2152 22.7088C52.1072 22.4247 51.951 22.2045 51.7464 22.0483C51.5419 21.892 51.2933 21.8139 51.0007 21.8139C50.7024 21.8139 50.451 21.8949 50.2464 22.0568C50.0419 22.2159 49.8871 22.4375 49.782 22.7216C49.6768 23.0057 49.6243 23.3338 49.6243 23.706C49.6243 24.0838 49.6768 24.4105 49.782 24.6861C49.8899 24.9588 50.0447 25.1705 50.2464 25.321C50.451 25.4687 50.7024 25.5426 51.0007 25.5426ZM55.6072 27V20.4545H57.3374V21.6094H57.4141C57.5504 21.2259 57.7777 20.9233 58.0959 20.7017C58.4141 20.4801 58.7947 20.3693 59.2379 20.3693C59.6868 20.3693 60.0689 20.4815 60.3842 20.706C60.6996 20.9276 60.9098 21.2287 61.0149 21.6094H61.0831C61.2166 21.2344 61.4581 20.9347 61.8075 20.7102C62.1598 20.483 62.576 20.3693 63.0561 20.3693C63.6669 20.3693 64.1626 20.5639 64.5433 20.9531C64.9268 21.3395 65.1186 21.8878 65.1186 22.598V27H63.3075V22.956C63.3075 22.5923 63.2109 22.3196 63.0178 22.1378C62.8246 21.956 62.5831 21.8651 62.2933 21.8651C61.9638 21.8651 61.7067 21.9702 61.522 22.1804C61.3374 22.3878 61.245 22.6619 61.245 23.0028V27H59.4851V22.9176C59.4851 22.5966 59.3928 22.3409 59.2081 22.1506C59.0263 21.9602 58.7862 21.8651 58.4879 21.8651C58.2862 21.8651 58.1044 21.9162 57.9425 22.0185C57.7834 22.1179 57.657 22.2585 57.5632 22.4403C57.4695 22.6193 57.4226 22.8295 57.4226 23.071V27H55.6072ZM68.419 27.1236C68.0014 27.1236 67.6293 27.0511 67.3026 26.9062C66.9759 26.7585 66.7173 26.5412 66.527 26.2543C66.3395 25.9645 66.2457 25.6037 66.2457 25.1719C66.2457 24.8082 66.3125 24.5028 66.446 24.2557C66.5795 24.0085 66.7614 23.8097 66.9915 23.6591C67.2216 23.5085 67.483 23.3949 67.7756 23.3182C68.071 23.2415 68.3807 23.1875 68.7045 23.1562C69.0852 23.1165 69.392 23.0795 69.625 23.0455C69.858 23.0085 70.027 22.9545 70.1321 22.8835C70.2372 22.8125 70.2898 22.7074 70.2898 22.5682V22.5426C70.2898 22.2727 70.2045 22.0639 70.0341 21.9162C69.8665 21.7685 69.6278 21.6946 69.3182 21.6946C68.9915 21.6946 68.7315 21.767 68.5384 21.9119C68.3452 22.054 68.2173 22.233 68.1548 22.4489L66.4759 22.3125C66.5611 21.9148 66.7287 21.571 66.9787 21.2812C67.2287 20.9886 67.5511 20.7642 67.946 20.608C68.3438 20.4489 68.804 20.3693 69.3267 20.3693C69.6903 20.3693 70.0384 20.4119 70.3707 20.4972C70.706 20.5824 71.0028 20.7145 71.2614 20.8935C71.5227 21.0724 71.7287 21.3026 71.8793 21.5838C72.0298 21.8622 72.1051 22.196 72.1051 22.5852V27H70.3835V26.0923H70.3324C70.2273 26.2969 70.0866 26.4773 69.9105 26.6335C69.7344 26.7869 69.5227 26.9077 69.2756 26.9957C69.0284 27.081 68.7429 27.1236 68.419 27.1236ZM68.9389 25.8707C69.206 25.8707 69.4418 25.8182 69.6463 25.7131C69.8509 25.6051 70.0114 25.4602 70.1278 25.2784C70.2443 25.0966 70.3026 24.8906 70.3026 24.6605V23.9659C70.2457 24.0028 70.1676 24.0369 70.0682 24.0682C69.9716 24.0966 69.8622 24.1236 69.7401 24.1491C69.6179 24.1719 69.4957 24.1932 69.3736 24.2131C69.2514 24.2301 69.1406 24.2457 69.0412 24.2599C68.8281 24.2912 68.642 24.3409 68.483 24.4091C68.3239 24.4773 68.2003 24.5696 68.1122 24.6861C68.0241 24.7997 67.9801 24.9418 67.9801 25.1122C67.9801 25.3594 68.0696 25.5483 68.2486 25.679C68.4304 25.8068 68.6605 25.8707 68.9389 25.8707Z" fill="white"/>
<path d="M128.852 27H125.759V18.2727H128.878C129.756 18.2727 130.511 18.4474 131.145 18.7969C131.778 19.1435 132.266 19.642 132.607 20.2926C132.95 20.9432 133.122 21.7216 133.122 22.6278C133.122 23.5369 132.95 24.3182 132.607 24.9716C132.266 25.625 131.776 26.1264 131.136 26.4759C130.5 26.8253 129.739 27 128.852 27ZM127.604 25.419H128.776C129.321 25.419 129.78 25.3224 130.152 25.1293C130.527 24.9332 130.808 24.6307 130.996 24.2216C131.186 23.8097 131.281 23.2784 131.281 22.6278C131.281 21.983 131.186 21.456 130.996 21.0469C130.808 20.6378 130.528 20.3366 130.156 20.1435C129.784 19.9503 129.325 19.8537 128.78 19.8537H127.604V25.419ZM137.438 27.1278C136.765 27.1278 136.185 26.9915 135.699 26.7188C135.216 26.4432 134.844 26.054 134.583 25.5511C134.321 25.0455 134.191 24.4474 134.191 23.7571C134.191 23.0838 134.321 22.4929 134.583 21.9844C134.844 21.4759 135.212 21.0795 135.686 20.7955C136.164 20.5114 136.723 20.3693 137.365 20.3693C137.797 20.3693 138.199 20.4389 138.571 20.5781C138.946 20.7145 139.273 20.9205 139.551 21.196C139.833 21.4716 140.051 21.8182 140.208 22.2358C140.364 22.6506 140.442 23.1364 140.442 23.6932V24.1918H134.915V23.0668H138.733C138.733 22.8054 138.676 22.5739 138.563 22.3722C138.449 22.1705 138.292 22.0128 138.09 21.8991C137.891 21.7827 137.659 21.7244 137.395 21.7244C137.12 21.7244 136.875 21.7884 136.662 21.9162C136.452 22.0412 136.287 22.2102 136.168 22.4233C136.049 22.6335 135.988 22.8679 135.985 23.1264V24.196C135.985 24.5199 136.044 24.7997 136.164 25.0355C136.286 25.2713 136.458 25.4531 136.679 25.581C136.901 25.7088 137.164 25.7727 137.468 25.7727C137.669 25.7727 137.854 25.7443 138.022 25.6875C138.189 25.6307 138.333 25.5455 138.452 25.4318C138.571 25.3182 138.662 25.179 138.725 25.0142L140.404 25.125C140.319 25.5284 140.144 25.8807 139.88 26.1818C139.618 26.4801 139.28 26.7131 138.865 26.8807C138.453 27.0455 137.978 27.1278 137.438 27.1278ZM147.073 22.321L145.411 22.4233C145.382 22.2812 145.321 22.1534 145.228 22.0398C145.134 21.9233 145.01 21.831 144.857 21.7628C144.706 21.6918 144.526 21.6562 144.316 21.6562C144.034 21.6562 143.797 21.7159 143.604 21.8352C143.411 21.9517 143.314 22.108 143.314 22.304C143.314 22.4602 143.377 22.5923 143.502 22.7003C143.627 22.8082 143.841 22.8949 144.145 22.9602L145.33 23.1989C145.966 23.3295 146.441 23.5398 146.753 23.8295C147.066 24.1193 147.222 24.5 147.222 24.9716C147.222 25.4006 147.096 25.777 146.843 26.1009C146.593 26.4247 146.249 26.6776 145.811 26.8594C145.377 27.0384 144.875 27.1278 144.307 27.1278C143.441 27.1278 142.75 26.9474 142.236 26.5866C141.725 26.223 141.425 25.7287 141.337 25.1037L143.123 25.0099C143.176 25.2741 143.307 25.4759 143.515 25.6151C143.722 25.7514 143.988 25.8196 144.311 25.8196C144.63 25.8196 144.885 25.7585 145.078 25.6364C145.275 25.5114 145.374 25.3509 145.377 25.1548C145.374 24.9901 145.304 24.8551 145.168 24.75C145.032 24.642 144.821 24.5597 144.537 24.5028L143.404 24.277C142.765 24.1491 142.289 23.9276 141.976 23.6122C141.667 23.2969 141.512 22.8949 141.512 22.4062C141.512 21.9858 141.625 21.6236 141.853 21.3196C142.083 21.0156 142.405 20.7812 142.82 20.6165C143.238 20.4517 143.726 20.3693 144.286 20.3693C145.113 20.3693 145.763 20.544 146.238 20.8935C146.715 21.2429 146.993 21.7187 147.073 22.321ZM148.365 27V20.4545H150.18V27H148.365ZM149.277 19.6108C149.007 19.6108 148.776 19.5213 148.582 19.3423C148.392 19.1605 148.297 18.9432 148.297 18.6903C148.297 18.4403 148.392 18.2259 148.582 18.0469C148.776 17.8651 149.007 17.7741 149.277 17.7741C149.547 17.7741 149.777 17.8651 149.967 18.0469C150.161 18.2259 150.257 18.4403 150.257 18.6903C150.257 18.9432 150.161 19.1605 149.967 19.3423C149.777 19.5213 149.547 19.6108 149.277 19.6108ZM154.583 29.5909C153.995 29.5909 153.491 29.5099 153.071 29.348C152.653 29.1889 152.321 28.9716 152.074 28.696C151.826 28.4205 151.666 28.1108 151.592 27.767L153.271 27.5412C153.322 27.6719 153.403 27.794 153.514 27.9077C153.625 28.0213 153.771 28.1122 153.953 28.1804C154.137 28.2514 154.362 28.2869 154.626 28.2869C155.021 28.2869 155.346 28.1903 155.602 27.9972C155.86 27.8068 155.99 27.4872 155.99 27.0384V25.8409H155.913C155.833 26.0227 155.714 26.1946 155.555 26.3565C155.396 26.5185 155.191 26.6506 154.941 26.7528C154.691 26.8551 154.393 26.9062 154.047 26.9062C153.555 26.9062 153.108 26.7926 152.704 26.5653C152.304 26.3352 151.984 25.9844 151.745 25.5128C151.51 25.0384 151.392 24.4389 151.392 23.7145C151.392 22.973 151.512 22.3537 151.754 21.8565C151.995 21.3594 152.316 20.9872 152.717 20.7401C153.12 20.4929 153.562 20.3693 154.042 20.3693C154.409 20.3693 154.716 20.4318 154.963 20.5568C155.21 20.679 155.409 20.8324 155.559 21.017C155.713 21.1989 155.831 21.3778 155.913 21.554H155.981V20.4545H157.784V27.0639C157.784 27.6207 157.647 28.0866 157.375 28.4616C157.102 28.8366 156.724 29.1179 156.241 29.3054C155.761 29.4957 155.208 29.5909 154.583 29.5909ZM154.622 25.5426C154.914 25.5426 155.162 25.4702 155.363 25.3253C155.568 25.1776 155.724 24.9673 155.832 24.6946C155.943 24.419 155.998 24.0895 155.998 23.706C155.998 23.3224 155.944 22.9901 155.836 22.7088C155.728 22.4247 155.572 22.2045 155.368 22.0483C155.163 21.892 154.914 21.8139 154.622 21.8139C154.324 21.8139 154.072 21.8949 153.868 22.0568C153.663 22.2159 153.508 22.4375 153.403 22.7216C153.298 23.0057 153.245 23.3338 153.245 23.706C153.245 24.0838 153.298 24.4105 153.403 24.6861C153.511 24.9588 153.666 25.1705 153.868 25.321C154.072 25.4687 154.324 25.5426 154.622 25.5426ZM161.044 23.2159V27H159.228V20.4545H160.958V21.6094H161.035C161.18 21.2287 161.423 20.9276 161.764 20.706C162.105 20.4815 162.518 20.3693 163.004 20.3693C163.458 20.3693 163.855 20.4688 164.193 20.6676C164.531 20.8665 164.794 21.1506 164.981 21.5199C165.169 21.8864 165.262 22.3239 165.262 22.8324V27H163.447V23.1562C163.45 22.7557 163.348 22.4432 163.14 22.2188C162.933 21.9915 162.647 21.8778 162.284 21.8778C162.039 21.8778 161.824 21.9304 161.636 22.0355C161.451 22.1406 161.306 22.294 161.201 22.4957C161.099 22.6946 161.047 22.9347 161.044 23.2159Z" fill="#555555"/>
<defs>
<clipPath id="clip0_1468_1944">
<rect width="11" height="14.1714" fill="white" transform="translate(20 15)"/>
</clipPath>
</defs>
</svg>
